<?xml version="1.0" encoding="UTF-8" standalone="no"?>
<!DOCTYPE svg PUBLIC "-//W3C//DTD SVG 1.1//EN"
 "http://www.w3.org/Graphics/SVG/1.1/DTD/svg11.dtd">
<!-- Generated by graphviz version 12.2.1 (20241206.2353)
 -->
<!-- Pages: 1 -->
<svg width="888pt" height="767pt"
 viewBox="0.00 0.00 887.85 766.50" xmlns="http://www.w3.org/2000/svg" xmlns:xlink="http://www.w3.org/1999/xlink">
<g id="graph0" class="graph" transform="scale(1 1) rotate(0) translate(4 762.5)">
<polygon fill="white" stroke="none" points="-4,4 -4,-762.5 883.85,-762.5 883.85,4 -4,4"/>
<!-- START -->
<g id="node1" class="node">
<title>START</title>
<ellipse fill="none" stroke="black" cx="39.07" cy="-677" rx="39.07" ry="39.07"/>
<text text-anchor="middle" x="39.07" y="-671.95" font-family="Times New Roman,serif" font-size="14.00">START</text>
</g>
<!-- greeting -->
<g id="node3" class="node">
<title>greeting</title>
<polygon fill="none" stroke="black" points="178.39,-695 115.14,-695 115.14,-659 178.39,-659 178.39,-695"/>
<text text-anchor="middle" x="146.76" y="-671.95" font-family="Times New Roman,serif" font-size="14.00">Greeting</text>
</g>
<!-- START&#45;&gt;greeting -->
<g id="edge1" class="edge">
<title>START&#45;&gt;greeting</title>
<path fill="none" stroke="black" d="M78.52,-677C86.63,-677 95.22,-677 103.46,-677"/>
<polygon fill="black" stroke="black" points="103.26,-680.5 113.26,-677 103.26,-673.5 103.26,-680.5"/>
</g>
<!-- END -->
<g id="node2" class="node">
<title>END</title>
<ellipse fill="none" stroke="black" cx="845.99" cy="-537" rx="29.86" ry="29.86"/>
<ellipse fill="none" stroke="black" cx="845.99" cy="-537" rx="33.86" ry="33.86"/>
<text text-anchor="middle" x="845.99" y="-531.95" font-family="Times New Roman,serif" font-size="14.00">END</text>
</g>
<!-- greeting&#45;&gt;END -->
<g id="edge5" class="edge">
<title>greeting&#45;&gt;END</title>
<path fill="none" stroke="black" d="M174.49,-695.49C181.41,-699.71 188.99,-703.86 196.39,-707 254.29,-731.57 270.61,-742 333.51,-742 333.51,-742 333.51,-742 739.39,-742 810.85,-742 834,-642.34 841.46,-581.99"/>
<polygon fill="black" stroke="black" points="844.91,-582.68 842.55,-572.36 837.95,-581.9 844.91,-582.68"/>
<text text-anchor="middle" x="548.51" y="-745.2" font-family="Times New Roman,serif" font-size="14.00">unknown/end</text>
</g>
<!-- verification -->
<g id="node4" class="node">
<title>verification</title>
<polygon fill="none" stroke="black" points="374.39,-387 294.64,-387 294.64,-351 374.39,-351 374.39,-387"/>
<text text-anchor="middle" x="334.51" y="-363.95" font-family="Times New Roman,serif" font-size="14.00">Verification</text>
</g>
<!-- greeting&#45;&gt;verification -->
<g id="edge2" class="edge">
<title>greeting&#45;&gt;verification</title>
<path fill="none" stroke="black" d="M158.82,-658.66C190.12,-606.76 279.42,-458.69 316.77,-396.76"/>
<polygon fill="black" stroke="black" points="319.56,-398.92 321.72,-388.54 313.56,-395.3 319.56,-398.92"/>
<text text-anchor="middle" x="236.51" y="-597.6" font-family="Times New Roman,serif" font-size="14.00">yes speaking</text>
</g>
<!-- script_1 -->
<g id="node8" class="node">
<title>script_1</title>
<path fill="none" stroke="black" d="M460.39,-716C460.39,-716 424.89,-716 424.89,-716 418.89,-716 412.89,-710 412.89,-704 412.89,-704 412.89,-692 412.89,-692 412.89,-686 418.89,-680 424.89,-680 424.89,-680 460.39,-680 460.39,-680 466.39,-680 472.39,-686 472.39,-692 472.39,-692 472.39,-704 472.39,-704 472.39,-710 466.39,-716 460.39,-716"/>
<text text-anchor="middle" x="442.64" y="-692.95" font-family="Times New Roman,serif" font-size="14.00">script_1</text>
</g>
<!-- greeting&#45;&gt;script_1 -->
<g id="edge3" class="edge">
<title>greeting&#45;&gt;script_1</title>
<path fill="none" stroke="black" d="M178.66,-679.21C232.12,-683.03 341.87,-690.87 401.28,-695.12"/>
<polygon fill="black" stroke="black" points="400.73,-698.59 410.95,-695.81 401.23,-691.6 400.73,-698.59"/>
<text text-anchor="middle" x="236.51" y="-689.35" font-family="Times New Roman,serif" font-size="14.00">wrong number</text>
</g>
<!-- script_3 -->
<g id="node9" class="node">
<title>script_3</title>
<path fill="none" stroke="black" d="M566.26,-668C566.26,-668 530.76,-668 530.76,-668 524.76,-668 518.76,-662 518.76,-656 518.76,-656 518.76,-644 518.76,-644 518.76,-638 524.76,-632 530.76,-632 530.76,-632 566.26,-632 566.26,-632 572.26,-632 578.26,-638 578.26,-644 578.26,-644 578.26,-656 578.26,-656 578.26,-662 572.26,-668 566.26,-668"/>
<text text-anchor="middle" x="548.51" y="-644.95" font-family="Times New Roman,serif" font-size="14.00">script_3</text>
</g>
<!-- greeting&#45;&gt;script_3 -->
<g id="edge4" class="edge">
<title>greeting&#45;&gt;script_3</title>
<path fill="none" stroke="black" d="M178.8,-674.9C250.48,-670.06 427.53,-658.1 507.35,-652.71"/>
<polygon fill="black" stroke="black" points="507.14,-656.23 516.89,-652.07 506.67,-649.25 507.14,-656.23"/>
<text text-anchor="middle" x="334.51" y="-670.26" font-family="Times New Roman,serif" font-size="14.00">call back</text>
</g>
<!-- verification&#45;&gt;END -->
<g id="edge18" class="edge">
<title>verification&#45;&gt;END</title>
<path fill="none" stroke="black" d="M336.53,-387.34C339.41,-419.76 350.41,-486.78 392.39,-519 455.24,-567.25 699.6,-550.69 800.76,-541.46"/>
<polygon fill="black" stroke="black" points="800.95,-544.95 810.58,-540.54 800.3,-537.98 800.95,-544.95"/>
<text text-anchor="middle" x="643.89" y="-555.01" font-family="Times New Roman,serif" font-size="14.00">unknown/end</text>
</g>
<!-- discussion -->
<g id="node5" class="node">
<title>discussion</title>
<polygon fill="none" stroke="black" points="586.14,-522 510.89,-522 510.89,-486 586.14,-486 586.14,-522"/>
<text text-anchor="middle" x="548.51" y="-498.95" font-family="Times New Roman,serif" font-size="14.00">Discussion</text>
</g>
<!-- verification&#45;&gt;discussion -->
<g id="edge6" class="edge">
<title>verification&#45;&gt;discussion</title>
<path fill="none" stroke="black" d="M342.18,-387.2C350.69,-407.89 367.36,-441.2 392.39,-460 423.52,-483.39 466.62,-494.35 499.49,-499.49"/>
<polygon fill="black" stroke="black" points="498.76,-502.92 509.15,-500.86 499.74,-495.99 498.76,-502.92"/>
<text text-anchor="middle" x="442.64" y="-501.34" font-family="Times New Roman,serif" font-size="14.00">verified</text>
</g>
<!-- verification&#45;&gt;script_3 -->
<g id="edge7" class="edge">
<title>verification&#45;&gt;script_3</title>
<path fill="none" stroke="black" d="M337.53,-387.21C343.34,-436.47 361.73,-570.67 392.39,-601 425,-633.26 449.54,-609.5 492.89,-624.5 497.94,-626.25 503.15,-628.31 508.25,-630.5"/>
<polygon fill="black" stroke="black" points="506.55,-633.58 517.11,-634.48 509.42,-627.19 506.55,-633.58"/>
<text text-anchor="middle" x="442.64" y="-627.7" font-family="Times New Roman,serif" font-size="14.00">why verify</text>
</g>
<!-- script_4 -->
<g id="node10" class="node">
<title>script_4</title>
<path fill="none" stroke="black" d="M566.26,-360C566.26,-360 530.76,-360 530.76,-360 524.76,-360 518.76,-354 518.76,-348 518.76,-348 518.76,-336 518.76,-336 518.76,-330 524.76,-324 530.76,-324 530.76,-324 566.26,-324 566.26,-324 572.26,-324 578.26,-330 578.26,-336 578.26,-336 578.26,-348 578.26,-348 578.26,-354 572.26,-360 566.26,-360"/>
<text text-anchor="middle" x="548.51" y="-336.95" font-family="Times New Roman,serif" font-size="14.00">script_4</text>
</g>
<!-- verification&#45;&gt;script_4 -->
<g id="edge8" class="edge">
<title>verification&#45;&gt;script_4</title>
<path fill="none" stroke="black" d="M374.58,-360.57C380.53,-359.44 386.61,-358.37 392.39,-357.5 431.19,-351.65 475.79,-347.46 507.18,-344.92"/>
<polygon fill="black" stroke="black" points="507.32,-348.42 517.02,-344.14 506.77,-341.44 507.32,-348.42"/>
<text text-anchor="middle" x="442.64" y="-360.7" font-family="Times New Roman,serif" font-size="14.00">scammer</text>
</g>
<!-- script_5 -->
<g id="node11" class="node">
<title>script_5</title>
<path fill="none" stroke="black" d="M566.26,-306C566.26,-306 530.76,-306 530.76,-306 524.76,-306 518.76,-300 518.76,-294 518.76,-294 518.76,-282 518.76,-282 518.76,-276 524.76,-270 530.76,-270 530.76,-270 566.26,-270 566.26,-270 572.26,-270 578.26,-276 578.26,-282 578.26,-282 578.26,-294 578.26,-294 578.26,-300 572.26,-306 566.26,-306"/>
<text text-anchor="middle" x="548.51" y="-282.95" font-family="Times New Roman,serif" font-size="14.00">script_5</text>
</g>
<!-- verification&#45;&gt;script_5 -->
<g id="edge9" class="edge">
<title>verification&#45;&gt;script_5</title>
<path fill="none" stroke="black" d="M355.21,-350.65C365.58,-341.88 378.92,-331.92 392.39,-325.5 429.14,-307.97 474.81,-298.21 507.05,-293.07"/>
<polygon fill="black" stroke="black" points="507.42,-296.56 516.79,-291.61 506.38,-289.64 507.42,-296.56"/>
<text text-anchor="middle" x="442.64" y="-328.7" font-family="Times New Roman,serif" font-size="14.00">settled</text>
</g>
<!-- script_6 -->
<g id="node12" class="node">
<title>script_6</title>
<path fill="none" stroke="black" d="M566.26,-252C566.26,-252 530.76,-252 530.76,-252 524.76,-252 518.76,-246 518.76,-240 518.76,-240 518.76,-228 518.76,-228 518.76,-222 524.76,-216 530.76,-216 530.76,-216 566.26,-216 566.26,-216 572.26,-216 578.26,-222 578.26,-228 578.26,-228 578.26,-240 578.26,-240 578.26,-246 572.26,-252 566.26,-252"/>
<text text-anchor="middle" x="548.51" y="-228.95" font-family="Times New Roman,serif" font-size="14.00">script_6</text>
</g>
<!-- verification&#45;&gt;script_6 -->
<g id="edge10" class="edge">
<title>verification&#45;&gt;script_6</title>
<path fill="none" stroke="black" d="M341.85,-350.61C350.13,-329.33 366.69,-294.75 392.39,-275.5 425.92,-250.38 473.54,-240.45 507.15,-236.54"/>
<polygon fill="black" stroke="black" points="507.31,-240.04 516.91,-235.54 506.6,-233.08 507.31,-240.04"/>
<text text-anchor="middle" x="442.64" y="-278.7" font-family="Times New Roman,serif" font-size="14.00">no account</text>
</g>
<!-- script_7 -->
<g id="node13" class="node">
<title>script_7</title>
<path fill="none" stroke="black" d="M566.26,-198C566.26,-198 530.76,-198 530.76,-198 524.76,-198 518.76,-192 518.76,-186 518.76,-186 518.76,-174 518.76,-174 518.76,-168 524.76,-162 530.76,-162 530.76,-162 566.26,-162 566.26,-162 572.26,-162 578.26,-168 578.26,-174 578.26,-174 578.26,-186 578.26,-186 578.26,-192 572.26,-198 566.26,-198"/>
<text text-anchor="middle" x="548.51" y="-174.95" font-family="Times New Roman,serif" font-size="14.00">script_7</text>
</g>
<!-- verification&#45;&gt;script_7 -->
<g id="edge11" class="edge">
<title>verification&#45;&gt;script_7</title>
<path fill="none" stroke="black" d="M337.05,-350.67C340.73,-318.88 352.92,-253.56 392.39,-218.5 423.98,-190.43 472.88,-182.14 507.31,-180.02"/>
<polygon fill="black" stroke="black" points="507.05,-183.53 516.88,-179.59 506.73,-176.54 507.05,-183.53"/>
<text text-anchor="middle" x="442.64" y="-221.7" font-family="Times New Roman,serif" font-size="14.00">fraud</text>
</g>
<!-- script_8 -->
<g id="node14" class="node">
<title>script_8</title>
<path fill="none" stroke="black" d="M566.26,-144C566.26,-144 530.76,-144 530.76,-144 524.76,-144 518.76,-138 518.76,-132 518.76,-132 518.76,-120 518.76,-120 518.76,-114 524.76,-108 530.76,-108 530.76,-108 566.26,-108 566.26,-108 572.26,-108 578.26,-114 578.26,-120 578.26,-120 578.26,-132 578.26,-132 578.26,-138 572.26,-144 566.26,-144"/>
<text text-anchor="middle" x="548.51" y="-120.95" font-family="Times New Roman,serif" font-size="14.00">script_8</text>
</g>
<!-- verification&#45;&gt;script_8 -->
<g id="edge12" class="edge">
<title>verification&#45;&gt;script_8</title>
<path fill="none" stroke="black" d="M334.74,-350.67C334.1,-310.27 338.58,-213.06 392.39,-161.5 422.94,-132.22 472.47,-125.27 507.33,-124.41"/>
<polygon fill="black" stroke="black" points="507.05,-127.91 517.03,-124.34 507,-120.91 507.05,-127.91"/>
<text text-anchor="middle" x="442.64" y="-164.7" font-family="Times New Roman,serif" font-size="14.00">police</text>
</g>
<!-- script_9 -->
<g id="node15" class="node">
<title>script_9</title>
<path fill="none" stroke="black" d="M566.26,-90C566.26,-90 530.76,-90 530.76,-90 524.76,-90 518.76,-84 518.76,-78 518.76,-78 518.76,-66 518.76,-66 518.76,-60 524.76,-54 530.76,-54 530.76,-54 566.26,-54 566.26,-54 572.26,-54 578.26,-60 578.26,-66 578.26,-66 578.26,-78 578.26,-78 578.26,-84 572.26,-90 566.26,-90"/>
<text text-anchor="middle" x="548.51" y="-66.95" font-family="Times New Roman,serif" font-size="14.00">script_9</text>
</g>
<!-- verification&#45;&gt;script_9 -->
<g id="edge13" class="edge">
<title>verification&#45;&gt;script_9</title>
<path fill="none" stroke="black" d="M336.91,-350.59C341.4,-296.47 357.25,-139.45 392.39,-104.5 422.27,-74.77 471.93,-68.99 507,-69.13"/>
<polygon fill="black" stroke="black" points="506.7,-72.63 516.78,-69.35 506.86,-65.63 506.7,-72.63"/>
<text text-anchor="middle" x="442.64" y="-107.7" font-family="Times New Roman,serif" font-size="14.00">central bank</text>
</g>
<!-- script_10 -->
<g id="node16" class="node">
<title>script_10</title>
<path fill="none" stroke="black" d="M569.64,-36C569.64,-36 527.39,-36 527.39,-36 521.39,-36 515.39,-30 515.39,-24 515.39,-24 515.39,-12 515.39,-12 515.39,-6 521.39,0 527.39,0 527.39,0 569.64,0 569.64,0 575.64,0 581.64,-6 581.64,-12 581.64,-12 581.64,-24 581.64,-24 581.64,-30 575.64,-36 569.64,-36"/>
<text text-anchor="middle" x="548.51" y="-12.95" font-family="Times New Roman,serif" font-size="14.00">script_10</text>
</g>
<!-- verification&#45;&gt;script_10 -->
<g id="edge14" class="edge">
<title>verification&#45;&gt;script_10</title>
<path fill="none" stroke="black" d="M336.13,-350.74C338.59,-289.36 349.73,-91.95 392.39,-48.5 420.98,-19.38 468.69,-13.79 503.66,-14.23"/>
<polygon fill="black" stroke="black" points="503.37,-17.73 513.48,-14.54 503.59,-10.73 503.37,-17.73"/>
<text text-anchor="middle" x="442.64" y="-51.7" font-family="Times New Roman,serif" font-size="14.00">time barred</text>
</g>
<!-- script_11 -->
<g id="node17" class="node">
<title>script_11</title>
<path fill="none" stroke="black" d="M569.64,-614C569.64,-614 527.39,-614 527.39,-614 521.39,-614 515.39,-608 515.39,-602 515.39,-602 515.39,-590 515.39,-590 515.39,-584 521.39,-578 527.39,-578 527.39,-578 569.64,-578 569.64,-578 575.64,-578 581.64,-584 581.64,-590 581.64,-590 581.64,-602 581.64,-602 581.64,-608 575.64,-614 569.64,-614"/>
<text text-anchor="middle" x="548.51" y="-590.95" font-family="Times New Roman,serif" font-size="14.00">script_11</text>
</g>
<!-- verification&#45;&gt;script_11 -->
<g id="edge15" class="edge">
<title>verification&#45;&gt;script_11</title>
<path fill="none" stroke="black" d="M335.21,-387.44C335.66,-425.73 342.38,-514.2 392.39,-561 394.48,-562.96 459.03,-577.08 504.2,-586.78"/>
<polygon fill="black" stroke="black" points="503.22,-590.15 513.73,-588.82 504.69,-583.3 503.22,-590.15"/>
<text text-anchor="middle" x="442.64" y="-586.79" font-family="Times New Roman,serif" font-size="14.00">wont pay</text>
</g>
<!-- script_13 -->
<g id="node18" class="node">
<title>script_13</title>
<path fill="none" stroke="black" d="M569.64,-468C569.64,-468 527.39,-468 527.39,-468 521.39,-468 515.39,-462 515.39,-456 515.39,-456 515.39,-444 515.39,-444 515.39,-438 521.39,-432 527.39,-432 527.39,-432 569.64,-432 569.64,-432 575.64,-432 581.64,-438 581.64,-444 581.64,-444 581.64,-456 581.64,-456 581.64,-462 575.64,-468 569.64,-468"/>
<text text-anchor="middle" x="548.51" y="-444.95" font-family="Times New Roman,serif" font-size="14.00">script_13</text>
</g>
<!-- verification&#45;&gt;script_13 -->
<g id="edge16" class="edge">
<title>verification&#45;&gt;script_13</title>
<path fill="none" stroke="black" d="M357.62,-387.31C367.71,-394.92 380.13,-403.29 392.39,-409 428.26,-425.7 472.09,-436.49 503.99,-442.79"/>
<polygon fill="black" stroke="black" points="503.21,-446.2 513.69,-444.63 504.51,-439.32 503.21,-446.2"/>
<text text-anchor="middle" x="442.64" y="-443.19" font-family="Times New Roman,serif" font-size="14.00">cant afford/jobless</text>
</g>
<!-- script_14 -->
<g id="node19" class="node">
<title>script_14</title>
<path fill="none" stroke="black" d="M569.64,-414C569.64,-414 527.39,-414 527.39,-414 521.39,-414 515.39,-408 515.39,-402 515.39,-402 515.39,-390 515.39,-390 515.39,-384 521.39,-378 527.39,-378 527.39,-378 569.64,-378 569.64,-378 575.64,-378 581.64,-384 581.64,-390 581.64,-390 581.64,-402 581.64,-402 581.64,-408 575.64,-414 569.64,-414"/>
<text text-anchor="middle" x="548.51" y="-390.95" font-family="Times New Roman,serif" font-size="14.00">script_14</text>
</g>
<!-- verification&#45;&gt;script_14 -->
<g id="edge17" class="edge">
<title>verification&#45;&gt;script_14</title>
<path fill="none" stroke="black" d="M374.4,-373.95C411.01,-378.62 465.78,-385.59 503.87,-390.44"/>
<polygon fill="black" stroke="black" points="503.25,-393.89 513.62,-391.68 504.14,-386.95 503.25,-393.89"/>
<text text-anchor="middle" x="442.64" y="-391.96" font-family="Times New Roman,serif" font-size="14.00">sick</text>
</g>
<!-- discussion&#45;&gt;END -->
<g id="edge21" class="edge">
<title>discussion&#45;&gt;END</title>
<path fill="none" stroke="black" d="M575.58,-485.68C579.2,-482.87 582.82,-479.93 586.14,-477 594.85,-469.3 594.87,-465.03 604.14,-458 667.36,-410.02 707.04,-365.72 775.14,-406.5 806.26,-425.14 824.3,-462.9 834.22,-493.03"/>
<polygon fill="black" stroke="black" points="830.78,-493.77 837.07,-502.29 837.47,-491.7 830.78,-493.77"/>
<text text-anchor="middle" x="738.39" y="-409.7" font-family="Times New Roman,serif" font-size="14.00">unknown/end</text>
</g>
<!-- transfer -->
<g id="node6" class="node">
<title>transfer</title>
<polygon fill="none" stroke="black" points="769.26,-522 707.51,-522 707.51,-486 769.26,-486 769.26,-522"/>
<text text-anchor="middle" x="738.39" y="-498.95" font-family="Times New Roman,serif" font-size="14.00">Transfer</text>
</g>
<!-- discussion&#45;&gt;transfer -->
<g id="edge19" class="edge">
<title>discussion&#45;&gt;transfer</title>
<path fill="none" stroke="black" d="M586.63,-504C618.06,-504 663.08,-504 695.74,-504"/>
<polygon fill="black" stroke="black" points="695.64,-507.5 705.64,-504 695.64,-500.5 695.64,-507.5"/>
<text text-anchor="middle" x="643.89" y="-507.2" font-family="Times New Roman,serif" font-size="14.00">discuss further</text>
</g>
<!-- callback -->
<g id="node7" class="node">
<title>callback</title>
<polygon fill="none" stroke="black" points="770.39,-468 706.39,-468 706.39,-432 770.39,-432 770.39,-468"/>
<text text-anchor="middle" x="738.39" y="-444.95" font-family="Times New Roman,serif" font-size="14.00">Callback</text>
</g>
<!-- discussion&#45;&gt;callback -->
<g id="edge20" class="edge">
<title>discussion&#45;&gt;callback</title>
<path fill="none" stroke="black" d="M586.63,-489.43C592.45,-487.33 598.43,-485.28 604.14,-483.5 634.18,-474.12 668.66,-465.51 695.02,-459.36"/>
<polygon fill="black" stroke="black" points="695.71,-462.8 704.67,-457.14 694.14,-455.97 695.71,-462.8"/>
<text text-anchor="middle" x="643.89" y="-486.7" font-family="Times New Roman,serif" font-size="14.00">callback</text>
</g>
<!-- transfer&#45;&gt;END -->
<g id="edge22" class="edge">
<title>transfer&#45;&gt;END</title>
<path fill="none" stroke="black" d="M769.65,-513.46C779.89,-516.66 791.52,-520.29 802.53,-523.73"/>
<polygon fill="black" stroke="black" points="801.22,-526.99 811.81,-526.63 803.31,-520.31 801.22,-526.99"/>
</g>
<!-- callback&#45;&gt;END -->
<g id="edge23" class="edge">
<title>callback&#45;&gt;END</title>
<path fill="none" stroke="black" d="M764.16,-468.39C767.87,-471.24 771.62,-474.17 775.14,-477 787.24,-486.75 800.22,-497.75 811.67,-507.64"/>
<polygon fill="black" stroke="black" points="809.1,-510.05 818.95,-513.96 813.69,-504.76 809.1,-510.05"/>
</g>
<!-- script_1&#45;&gt;END -->
<g id="edge24" class="edge">
<title>script_1&#45;&gt;END</title>
<path fill="none" stroke="black" d="M472.71,-696.68C502,-694.67 548.17,-689.63 586.14,-677 670.5,-648.94 759.77,-594.34 808.3,-562.25"/>
<polygon fill="black" stroke="black" points="810.11,-565.25 816.48,-556.79 806.22,-559.43 810.11,-565.25"/>
</g>
</g>
</svg>
